<?xml version="1.0" encoding="utf-8"?>
<!-- Generator: Adobe Illustrator 23.0.1, SVG Export Plug-In . SVG Version: 6.00 Build 0)  -->
<svg version="1.1" id="Layer_1" xmlns="http://www.w3.org/2000/svg" xmlns:xlink="http://www.w3.org/1999/xlink" x="0px" y="0px"
	 viewBox="0 0 45 45" style="enable-background:new 0 0 45 45;" xml:space="preserve">
<style type="text/css">
	.st0{fill:#FFFFFF;}
</style>
<path class="st0" d="M39.28,6.28H6.03c-2.2,0.08-3.36,1.14-3.59,3.1v33.88c0,0,3.18-4.97,5.06-4.97s32,0,32,0
	c1.98,0.13,3.02-0.79,2.94-2.93V9.28C42.51,7.15,41.42,6.18,39.28,6.28z M26.9,30.2c0,2.16-1.77,3.92-3.92,3.92
	s-3.92-1.77-3.92-3.92v-5.73c0-2.16,1.77-3.92,3.92-3.92s3.92,1.77,3.92,3.92V30.2z M23.02,19.38c-2.4,0-4.35-1.95-4.35-4.35
	s1.95-4.35,4.35-4.35c2.4,0,4.35,1.95,4.35,4.35S25.43,19.38,23.02,19.38z"/>
</svg>
