<?xml version="1.0" encoding="utf-8"?>
<!-- Generator: Adobe Illustrator 23.0.1, SVG Export Plug-In . SVG Version: 6.00 Build 0)  -->
<svg version="1.1" id="Layer_1" xmlns="http://www.w3.org/2000/svg" xmlns:xlink="http://www.w3.org/1999/xlink" x="0px" y="0px"
	 viewBox="0 0 45 45" style="enable-background:new 0 0 45 45;" xml:space="preserve">
<style type="text/css">
	.st0{fill:#FFFFFF;}
</style>
<path class="st0" d="M3.84,8h36.62c2.33-0.06,2.75,0.97,0.7,2.73L26.94,24.5c-2.41,2.67-4.92,2.5-7.5,0L3.08,9.86
	C2,8.88,2.29,7.94,3.84,8z"/>
<path class="st0" d="M4.28,13.85l15.2,15.03c2.55,2.05,5.1,2.14,7.56,0l13.55-14.66c1.5-1.6,2-0.96,1.95,1.03v25.08
	c0.02,2.08-1.1,3.23-3.33,3.35H6.06c-2.16-0.01-3.77-0.71-3.72-3.5L2.35,15C2.36,13.24,3.02,12.9,4.28,13.85z"/>
</svg>
