<?xml version="1.0" encoding="utf-8"?>
<!-- Generator: Adobe Illustrator 23.0.1, SVG Export Plug-In . SVG Version: 6.00 Build 0)  -->
<svg version="1.1" id="Layer_1" xmlns="http://www.w3.org/2000/svg" xmlns:xlink="http://www.w3.org/1999/xlink" x="0px" y="0px"
	 viewBox="0 0 33.5 34.8" style="enable-background:new 0 0 33.5 34.8;" xml:space="preserve">
<style type="text/css">
	.st0{fill:#FCFCFC;}
	.st1{fill:#FFFFFF;}
</style>
<path class="st0" d="M1.3,15.5L16.3,2c0.8-0.8,1.6-0.7,2.5,0l3.4,3.3V2.9h3.6v5.6l6.6,6.6c0.7,0.7,0.6,1.3,0.2,1.9l-1,1.3
	c-0.5,0.5-1.1,0.6-1.7-0.1L19.1,7.1C18,6.2,17,6,15.9,6.9L3.8,18.6c-0.6,0.5-1.1,0.4-1.5,0l-1.2-1.7C0.8,16.4,0.8,15.9,1.3,15.5z"/>
<path class="st1" d="M16,8.6c0.9-0.8,1.9-0.8,2.8,0l10,10.7l0.3,13.1c-0.1,0.7-0.4,1.1-1.2,1.1h-5.6c-0.7-0.1-1.1-0.5-1.1-1.2
	l-0.1-6.7h-8.7v6.6c-0.1,0.9-0.5,1.3-1.2,1.3H5.9c-0.7-0.1-1.1-0.5-1.2-1.3v-13L16,8.6z"/>
</svg>
