<?xml version="1.0" encoding="utf-8"?>
<!-- Generator: Adobe Illustrator 23.0.1, SVG Export Plug-In . SVG Version: 6.00 Build 0)  -->
<svg version="1.1" id="Layer_1" xmlns="http://www.w3.org/2000/svg" xmlns:xlink="http://www.w3.org/1999/xlink" x="0px" y="0px"
	 viewBox="0 0 34.5 27.9" style="enable-background:new 0 0 34.5 27.9;" xml:space="preserve">
<style type="text/css">
	.st0{fill:#FFFFFF;}
</style>
<path class="st0" d="M2.6,3.9l9.8,0v-1C12.6,2.3,13,2,13.7,2h6.6c0.9,0,1.4,0.4,1.5,1.1v0.9h10c0.9,0,1.2,0.4,1.3,1.2v4L19,14.8
	v-0.7c0-0.4-0.2-0.6-0.6-0.6l-2.4,0c-0.4,0-0.6,0.1-0.6,0.5v0.5L1.2,9.5V5.3C1.3,4.5,1.7,4,2.6,3.9z"/>
<path class="st0" d="M1.6,10.9l13.7,5v1c0,0.3,0.1,0.5,0.5,0.5h2.8c0.3,0,0.5-0.1,0.5-0.4v-0.8l13.7-5.8V25c0,0.7-0.3,1-0.8,0.9
	L2.7,26c-0.8,0.1-1.1-0.3-1-1.1L1.6,10.9z"/>
</svg>
