<?xml version="1.0" encoding="utf-8"?>
<!-- Generator: Adobe Illustrator 23.0.1, SVG Export Plug-In . SVG Version: 6.00 Build 0)  -->
<svg version="1.1" id="Layer_1" xmlns="http://www.w3.org/2000/svg" xmlns:xlink="http://www.w3.org/1999/xlink" x="0px" y="0px"
	 viewBox="0 0 36.3 33.2" style="enable-background:new 0 0 36.3 33.2;" xml:space="preserve">
<path d="M31.2,23.8c-0.8,0.3-1.7,0-2.1-0.8l-3.7-5.2l-0.5-0.7L20.5,23c-0.4,0.7-1.2,1-2,0.8l5.6-7.5L19,9.5c0.8-0.3,1.6,0,2.1,0.7
	l3.9,5.2l3.9-5.2c0.4-0.7,1.2-1,1.9-0.7l-2,2.7L26,15.8c-0.3,0.3-0.3,0.7-0.1,1c0,0,0,0,0.1,0.1L31.2,23.8L31.2,23.8z M5.1,16.2
	l0.5-2.3c1.3-4.5,6.4-6.3,9.9-3.6c2.1,1.6,2.6,3.9,2.5,6.5H6.4c-0.2,4.6,3.1,7.4,7.4,6c1.4-0.5,2.5-1.7,2.8-3.1
	c0.2-0.7,0.6-0.8,1.3-0.6c-0.2,1.8-1.3,3.4-2.8,4.3c-2.6,1.4-5.8,1-7.9-1c-1-1.2-1.7-2.6-1.8-4.2c0-0.3-0.1-0.5-0.1-0.7
	C5.1,17,5.1,16.6,5.1,16.2L5.1,16.2z M6.4,15.9h10.5c-0.1-3.3-2.2-5.7-5-5.7C8.7,10.1,6.5,12.4,6.4,15.9L6.4,15.9z"/>
</svg>
