<?xml version="1.0" encoding="utf-8"?>
<!-- Generator: Adobe Illustrator 23.0.1, SVG Export Plug-In . SVG Version: 6.00 Build 0)  -->
<svg version="1.1" id="Layer_1" xmlns="http://www.w3.org/2000/svg" xmlns:xlink="http://www.w3.org/1999/xlink" x="0px" y="0px"
	 viewBox="0 0 34.9 35.2" style="enable-background:new 0 0 34.9 35.2;" xml:space="preserve">
<path d="M24.1,6.1H10.6c-2.7,0-4.8,2.2-4.8,4.8v13.5c0,2.7,2.2,4.8,4.8,4.8h13.5c2.7,0,4.8-2.2,4.8-4.8V10.9
	C28.9,8.2,26.8,6.1,24.1,6.1z M13.5,24.4h-2.9V13.8h2.9V24.4z M12.1,12.5c-0.9,0-1.7-0.8-1.7-1.7c0-0.9,0.8-1.7,1.7-1.7
	s1.7,0.8,1.7,1.7C13.8,11.8,13,12.5,12.1,12.5z M25.1,24.4h-2.9V19c0-3.2-3.9-3-3.9,0v5.4h-2.9V13.8h2.9v1.7
	c1.3-2.5,6.7-2.7,6.7,2.4V24.4z"/>
</svg>
